<mxfile host="Electron" modified="2023-11-08T13:28:25.780Z" agent="Mozilla/5.0 (Macintosh; Intel Mac OS X 10_15_7) AppleWebKit/537.36 (KHTML, like Gecko) draw.io/22.0.3 Chrome/114.0.5735.289 Electron/25.8.4 Safari/537.36" etag="lReWXM72TimTUel5laFp" version="22.0.3" type="device">
  <diagram id="eOFOYFhU0GsHmSKvHhCn" name="Pagina-1">
    <mxGraphModel dx="955" dy="1871" grid="1" gridSize="10" guides="1" tooltips="1" connect="1" arrows="1" fold="1" page="1" pageScale="1" pageWidth="827" pageHeight="1169" math="1" shadow="0">
      <root>
        <mxCell id="0" />
        <mxCell id="1" parent="0" />
        <mxCell id="rgP2N9JaqtHhb8GfTGPO-10" value="$$\omega_0$$" style="text;html=1;strokeColor=none;fillColor=none;align=center;verticalAlign=middle;whiteSpace=wrap;rounded=0;fontSize=13;fontColor=#1A1A1A;" parent="1" vertex="1">
          <mxGeometry x="650" y="170" width="60" height="30" as="geometry" />
        </mxCell>
        <mxCell id="Bt-oEbJeruquEmox--3e-2" value="$$x^*$$" style="text;html=1;strokeColor=none;fillColor=none;align=center;verticalAlign=middle;whiteSpace=wrap;rounded=0;fontSize=15;fontColor=#1A1A1A;" vertex="1" parent="1">
          <mxGeometry x="647" y="225" width="60" height="30" as="geometry" />
        </mxCell>
        <mxCell id="Bt-oEbJeruquEmox--3e-3" value="" style="endArrow=none;html=1;rounded=0;edgeStyle=orthogonalEdgeStyle;curved=1;" edge="1" parent="1">
          <mxGeometry width="50" height="50" relative="1" as="geometry">
            <mxPoint x="460" y="30" as="sourcePoint" />
            <mxPoint x="680" y="230" as="targetPoint" />
            <Array as="points">
              <mxPoint x="460" y="230" />
            </Array>
          </mxGeometry>
        </mxCell>
        <mxCell id="Bt-oEbJeruquEmox--3e-4" value="" style="endArrow=classic;html=1;rounded=0;fontSize=25;fontColor=#1A1A1A;strokeWidth=2;" edge="1" parent="1">
          <mxGeometry width="50" height="50" relative="1" as="geometry">
            <mxPoint x="660" y="250" as="sourcePoint" />
            <mxPoint x="660" as="targetPoint" />
          </mxGeometry>
        </mxCell>
        <mxCell id="Bt-oEbJeruquEmox--3e-34" value="" style="endArrow=classic;html=1;rounded=0;fontSize=25;fontColor=#1A1A1A;strokeWidth=2;" edge="1" parent="1">
          <mxGeometry width="50" height="50" relative="1" as="geometry">
            <mxPoint x="400" y="230" as="sourcePoint" />
            <mxPoint x="723" y="230" as="targetPoint" />
          </mxGeometry>
        </mxCell>
        <mxCell id="Bt-oEbJeruquEmox--3e-36" value="" style="curved=1;endArrow=classic;html=1;rounded=0;" edge="1" parent="1">
          <mxGeometry width="50" height="50" relative="1" as="geometry">
            <mxPoint x="654" y="226" as="sourcePoint" />
            <mxPoint x="666" y="226" as="targetPoint" />
            <Array as="points">
              <mxPoint x="640" y="197" />
              <mxPoint x="660" y="196" />
              <mxPoint x="680" y="197" />
            </Array>
          </mxGeometry>
        </mxCell>
        <mxCell id="Bt-oEbJeruquEmox--3e-37" value="" style="ellipse;whiteSpace=wrap;html=1;aspect=fixed;strokeColor=default;fillColor=#000000;" vertex="1" parent="1">
          <mxGeometry x="658" y="228" width="4" height="4" as="geometry" />
        </mxCell>
        <mxCell id="Bt-oEbJeruquEmox--3e-39" value="" style="ellipse;whiteSpace=wrap;html=1;aspect=fixed;strokeColor=default;fillColor=#000000;" vertex="1" parent="1">
          <mxGeometry x="472" y="116" width="4" height="4" as="geometry" />
        </mxCell>
        <mxCell id="Bt-oEbJeruquEmox--3e-40" value="$$x$$" style="text;html=1;strokeColor=none;fillColor=none;align=center;verticalAlign=middle;whiteSpace=wrap;rounded=0;fontSize=15;fontColor=#1A1A1A;" vertex="1" parent="1">
          <mxGeometry x="420" y="57" width="60" height="30" as="geometry" />
        </mxCell>
        <mxCell id="Bt-oEbJeruquEmox--3e-41" value="$$\left\{\begin{aligned}&lt;br&gt;\\&lt;br&gt;\\&lt;br&gt;\\&lt;br&gt;\\&lt;br&gt;\\&lt;br style=&quot;border-color: var(--border-color);&quot;&gt;\\&lt;br style=&quot;border-color: var(--border-color);&quot;&gt;\\ \\&amp;nbsp;\end{aligned}\right.$$" style="text;html=1;strokeColor=none;fillColor=none;align=center;verticalAlign=middle;whiteSpace=wrap;rounded=0;fontSize=15;fontColor=#1A1A1A;rotation=-90;" vertex="1" parent="1">
          <mxGeometry x="560" y="211" width="20" height="100" as="geometry" />
        </mxCell>
        <mxCell id="Bt-oEbJeruquEmox--3e-43" value="$$\delta$$" style="text;html=1;strokeColor=none;fillColor=none;align=center;verticalAlign=middle;whiteSpace=wrap;rounded=0;fontSize=15;fontColor=#1A1A1A;" vertex="1" parent="1">
          <mxGeometry x="514" y="300" width="60" height="30" as="geometry" />
        </mxCell>
        <mxCell id="Bt-oEbJeruquEmox--3e-44" value="$$\epsilon$$" style="text;html=1;strokeColor=none;fillColor=none;align=center;verticalAlign=middle;whiteSpace=wrap;rounded=0;fontSize=15;fontColor=#1A1A1A;" vertex="1" parent="1">
          <mxGeometry x="540" y="260" width="60" height="30" as="geometry" />
        </mxCell>
        <mxCell id="Bt-oEbJeruquEmox--3e-45" value="" style="ellipse;whiteSpace=wrap;html=1;aspect=fixed;strokeColor=default;fillColor=#000000;" vertex="1" parent="1">
          <mxGeometry x="570" y="211" width="4" height="4" as="geometry" />
        </mxCell>
        <mxCell id="Bt-oEbJeruquEmox--3e-46" value="$$\zeta(s)$$" style="text;html=1;strokeColor=none;fillColor=none;align=center;verticalAlign=middle;whiteSpace=wrap;rounded=0;fontSize=13;fontColor=#1A1A1A;" vertex="1" parent="1">
          <mxGeometry x="560" y="185" width="60" height="30" as="geometry" />
        </mxCell>
        <mxCell id="Bt-oEbJeruquEmox--3e-47" value="" style="curved=1;endArrow=classic;html=1;rounded=0;" edge="1" parent="1">
          <mxGeometry width="50" height="50" relative="1" as="geometry">
            <mxPoint x="480" y="120" as="sourcePoint" />
            <mxPoint x="569" y="205" as="targetPoint" />
            <Array as="points">
              <mxPoint x="560" y="130" />
            </Array>
          </mxGeometry>
        </mxCell>
        <mxCell id="Bt-oEbJeruquEmox--3e-49" value="$$y = \xi_1(t_1)$$" style="text;html=1;strokeColor=none;fillColor=none;align=center;verticalAlign=middle;whiteSpace=wrap;rounded=0;fontSize=15;fontColor=#1A1A1A;" vertex="1" parent="1">
          <mxGeometry x="404.5" y="115" width="60" height="30" as="geometry" />
        </mxCell>
        <mxCell id="Bt-oEbJeruquEmox--3e-52" value="$$V(x)$$" style="text;html=1;strokeColor=none;fillColor=none;align=center;verticalAlign=middle;whiteSpace=wrap;rounded=0;fontSize=13;fontColor=#1A1A1A;" vertex="1" parent="1">
          <mxGeometry x="665.5" y="49" width="60" height="30" as="geometry" />
        </mxCell>
        <mxCell id="Bt-oEbJeruquEmox--3e-53" value="" style="endArrow=none;dashed=1;html=1;strokeWidth=2;rounded=0;" edge="1" parent="1">
          <mxGeometry width="50" height="50" relative="1" as="geometry">
            <mxPoint x="459" y="38" as="sourcePoint" />
            <mxPoint x="678.5" y="38" as="targetPoint" />
          </mxGeometry>
        </mxCell>
        <mxCell id="Bt-oEbJeruquEmox--3e-54" value="$$\alpha_0$$" style="text;html=1;strokeColor=none;fillColor=none;align=center;verticalAlign=middle;whiteSpace=wrap;rounded=0;fontSize=15;fontColor=#1A1A1A;" vertex="1" parent="1">
          <mxGeometry x="662.5" y="21" width="60" height="30" as="geometry" />
        </mxCell>
        <mxCell id="Bt-oEbJeruquEmox--3e-55" value="" style="ellipse;whiteSpace=wrap;html=1;aspect=fixed;strokeColor=default;fillColor=#000000;" vertex="1" parent="1">
          <mxGeometry x="460.5" y="63" width="4" height="4" as="geometry" />
        </mxCell>
        <mxCell id="Bt-oEbJeruquEmox--3e-56" value="" style="endArrow=none;dashed=1;html=1;strokeWidth=2;rounded=0;" edge="1" parent="1">
          <mxGeometry width="50" height="50" relative="1" as="geometry">
            <mxPoint x="465.5" y="65" as="sourcePoint" />
            <mxPoint x="678.5" y="65" as="targetPoint" />
          </mxGeometry>
        </mxCell>
        <mxCell id="Bt-oEbJeruquEmox--3e-59" value="$$\frac 1 2V(x)$$" style="text;html=1;strokeColor=none;fillColor=none;align=center;verticalAlign=middle;whiteSpace=wrap;rounded=0;fontSize=13;fontColor=#1A1A1A;" vertex="1" parent="1">
          <mxGeometry x="683" y="120" width="60" height="30" as="geometry" />
        </mxCell>
        <mxCell id="Bt-oEbJeruquEmox--3e-61" value="" style="endArrow=none;dashed=1;html=1;strokeWidth=2;rounded=0;" edge="1" parent="1">
          <mxGeometry width="50" height="50" relative="1" as="geometry">
            <mxPoint x="482" y="136" as="sourcePoint" />
            <mxPoint x="687.5" y="136" as="targetPoint" />
          </mxGeometry>
        </mxCell>
        <mxCell id="Bt-oEbJeruquEmox--3e-63" value="$$\left\{\begin{aligned}&lt;br&gt;\\&lt;br&gt;\\&lt;br&gt;\\&lt;br&gt;\\&lt;br&gt;\\&lt;br&gt;\\&lt;br style=&quot;border-color: var(--border-color);&quot;&gt;\\&lt;br style=&quot;border-color: var(--border-color);&quot;&gt;\\ \\&amp;nbsp;\end{aligned}\right.$$" style="text;html=1;strokeColor=none;fillColor=none;align=center;verticalAlign=middle;whiteSpace=wrap;rounded=0;fontSize=15;fontColor=#1A1A1A;rotation=-90;" vertex="1" parent="1">
          <mxGeometry x="550" y="240" width="20" height="100" as="geometry" />
        </mxCell>
        <mxCell id="Bt-oEbJeruquEmox--3e-64" value="$$\delta_0$$" style="text;html=1;strokeColor=none;fillColor=none;align=center;verticalAlign=middle;whiteSpace=wrap;rounded=0;fontSize=15;fontColor=#1A1A1A;" vertex="1" parent="1">
          <mxGeometry x="730" y="147" width="60" height="30" as="geometry" />
        </mxCell>
        <mxCell id="Bt-oEbJeruquEmox--3e-65" value="$$\left\{\begin{aligned}&lt;br&gt;\\&lt;br&gt;\\&lt;br&gt;\\&lt;br style=&quot;border-color: var(--border-color);&quot;&gt;\\&lt;br style=&quot;border-color: var(--border-color);&quot;&gt;\\ \\&amp;nbsp;\end{aligned}\right.$$" style="text;html=1;strokeColor=none;fillColor=none;align=center;verticalAlign=middle;whiteSpace=wrap;rounded=0;fontSize=15;fontColor=#1A1A1A;rotation=-180;" vertex="1" parent="1">
          <mxGeometry x="730" y="115" width="20" height="100" as="geometry" />
        </mxCell>
        <mxCell id="Bt-oEbJeruquEmox--3e-66" value="" style="curved=1;endArrow=classic;html=1;rounded=0;" edge="1" parent="1">
          <mxGeometry width="50" height="50" relative="1" as="geometry">
            <mxPoint x="471" y="70" as="sourcePoint" />
            <mxPoint x="480" y="110" as="targetPoint" />
            <Array as="points">
              <mxPoint x="520" y="90" />
            </Array>
          </mxGeometry>
        </mxCell>
        <mxCell id="Bt-oEbJeruquEmox--3e-70" value="$$\omega_0$$" style="text;html=1;strokeColor=none;fillColor=none;align=center;verticalAlign=middle;whiteSpace=wrap;rounded=0;fontSize=13;fontColor=#1A1A1A;" vertex="1" parent="1">
          <mxGeometry x="530" y="130" width="60" height="30" as="geometry" />
        </mxCell>
        <mxCell id="Bt-oEbJeruquEmox--3e-72" value="$$\omega_1$$" style="text;html=1;strokeColor=none;fillColor=none;align=center;verticalAlign=middle;whiteSpace=wrap;rounded=0;fontSize=13;fontColor=#1A1A1A;" vertex="1" parent="1">
          <mxGeometry x="480" y="67" width="60" height="30" as="geometry" />
        </mxCell>
      </root>
    </mxGraphModel>
  </diagram>
</mxfile>
